<svg xmlns="http://www.w3.org/2000/svg" xmlns:xlink="http://www.w3.org/1999/xlink" width="500" zoomAndPan="magnify" viewBox="0 0 375 374.999991" height="500" preserveAspectRatio="xMidYMid meet" version="1.0"><defs><clipPath id="395afdc78e"><path d="M 51.628906 87 L 323.128906 87 L 323.128906 274 L 51.628906 274 Z M 51.628906 87 " clip-rule="nonzero"/></clipPath><clipPath id="e8253df5a4"><path d="M 123 216 L 252 216 L 252 287.953125 L 123 287.953125 Z M 123 216 " clip-rule="nonzero"/></clipPath></defs><rect x="-37.5" width="450" fill="#ffffff" y="-37.499999" height="449.999989" fill-opacity="1"/><rect x="-37.5" width="450" fill="#19a28d" y="-37.499999" height="449.999989" fill-opacity="1"/><g clip-path="url(#395afdc78e)"><path fill="#ffffff" d="M 187.496094 87.363281 L 51.628906 158.867188 L 187.496094 230.375 L 266.152344 190.601562 C 266.152344 190.601562 266.152344 226.652344 266.152344 244.675781 C 266.152344 273.28125 294.757812 273.28125 294.757812 273.28125 L 294.757812 258.976562 C 294.757812 258.976562 280.457031 258.160156 280.457031 244.671875 C 280.457031 223.21875 280.457031 182.550781 280.457031 182.550781 L 323.363281 158.867188 Z M 187.496094 87.363281 " fill-opacity="1" fill-rule="nonzero"/></g><g clip-path="url(#e8253df5a4)"><path fill="#ffffff" d="M 123.136719 216.074219 L 123.136719 244.675781 C 123.136719 251.78125 127.785156 261.300781 137.4375 266.128906 L 187.496094 287.582031 L 230.398438 266.128906 C 240.054688 261.300781 252.527344 251.746094 251.851562 244.675781 L 251.851562 216.074219 L 187.496094 247.355469 Z M 123.136719 216.074219 " fill-opacity="1" fill-rule="nonzero"/></g></svg>