<svg width="561" height="141" viewBox="0 0 561 141" fill="none" xmlns="http://www.w3.org/2000/svg">
<path d="M173.461 101.061H193.543L194.045 102.854H172.529L173.461 101.061ZM210.685 119.567C210.876 119.567 210.972 119.71 210.972 119.997C210.972 120.284 210.876 120.428 210.685 120.428C209.776 120.428 208.318 120.38 206.31 120.284C204.301 120.189 202.843 120.141 201.934 120.141C200.739 120.141 199.328 120.189 197.703 120.284C196.077 120.38 194.81 120.428 193.901 120.428C193.71 120.428 193.614 120.284 193.614 119.997C193.614 119.71 193.71 119.567 193.901 119.567C195.336 119.567 196.364 119.423 196.985 119.136C197.607 118.802 197.918 118.276 197.918 117.558C197.918 116.841 197.511 115.622 196.699 113.9L181.709 83.4162L184.65 78.6105L170.45 110.601C169.828 112.035 169.517 113.327 169.517 114.474C169.517 116.148 170.115 117.415 171.31 118.276C172.506 119.136 174.179 119.567 176.331 119.567C176.57 119.567 176.69 119.71 176.69 119.997C176.69 120.284 176.57 120.428 176.331 120.428C175.471 120.428 174.227 120.38 172.602 120.284C170.785 120.189 169.207 120.141 167.868 120.141C166.577 120.141 165.07 120.189 163.349 120.284C161.819 120.38 160.552 120.428 159.548 120.428C159.309 120.428 159.189 120.284 159.189 119.997C159.189 119.71 159.309 119.567 159.548 119.567C160.886 119.567 162.01 119.304 162.919 118.778C163.827 118.252 164.712 117.319 165.572 115.98C166.433 114.594 167.461 112.561 168.657 109.884L184.076 75.1676C184.172 75.0241 184.387 74.9524 184.722 74.9524C185.056 74.9524 185.248 75.0241 185.296 75.1676L202.867 110.601C204.493 114.044 205.855 116.411 206.955 117.702C208.103 118.945 209.346 119.567 210.685 119.567ZM227.396 121.288C224.287 121.288 221.634 120.619 219.434 119.28C217.282 117.893 215.68 116.124 214.628 113.972C213.577 111.772 213.051 109.477 213.051 107.086C213.051 104.074 213.863 101.444 215.489 99.1963C217.115 96.901 219.195 95.1556 221.729 93.9602C224.311 92.7169 226.917 92.0952 229.547 92.0952C231.795 92.0952 233.803 92.5495 235.572 93.4581C237.389 94.3666 238.298 95.586 238.298 97.1162C238.298 97.9291 237.987 98.6224 237.365 99.1963C236.791 99.7701 235.955 100.057 234.855 100.057C232.99 100.057 231.675 99.005 230.91 96.901C230.48 95.7055 229.978 94.8687 229.404 94.3905C228.878 93.8645 228.041 93.6015 226.893 93.6015C224.646 93.6015 222.853 94.6296 221.514 96.6858C220.223 98.6942 219.577 101.396 219.577 104.791C219.577 108.76 220.486 111.988 222.303 114.474C224.168 116.913 227.061 118.132 230.982 118.132C232.273 118.132 233.444 117.965 234.496 117.63C235.596 117.295 236.768 116.769 238.011 116.052H238.083C238.226 116.052 238.346 116.124 238.441 116.267C238.585 116.411 238.609 116.53 238.513 116.626C236.744 118.204 234.998 119.376 233.277 120.141C231.556 120.906 229.595 121.288 227.396 121.288ZM263.328 120.858C263.137 120.954 262.922 121.001 262.683 121.001C261.822 121.001 261.033 120.428 260.316 119.28C259.599 118.084 259.24 116.506 259.24 114.546V101.922C259.24 98.9572 258.929 96.8053 258.308 95.4664C257.734 94.0797 256.801 93.3863 255.51 93.3863C253.932 93.3863 252.785 93.9841 252.068 95.1795C251.398 96.3272 250.992 97.6183 250.848 99.0528C250.561 101.492 249.342 102.711 247.19 102.711C246.138 102.711 245.349 102.472 244.823 101.994C244.345 101.515 244.106 100.918 244.106 100.2C244.106 98.8615 244.895 97.5704 246.473 96.3272C248.099 95.0361 250.035 94.008 252.283 93.2429C254.578 92.43 256.586 92.0235 258.308 92.0235C260.364 92.0235 261.99 92.6691 263.185 93.9602C264.428 95.2513 265.05 97.1879 265.05 99.7701V112.681C265.05 115.694 265.982 117.2 267.847 117.2C268.564 117.2 269.425 116.985 270.429 116.554H270.573C270.764 116.554 270.883 116.674 270.931 116.913C270.979 117.104 270.907 117.248 270.716 117.343L263.328 120.858ZM249.844 120.93C247.884 120.93 246.401 120.475 245.397 119.567C244.393 118.658 243.891 117.415 243.891 115.837C243.891 114.546 244.226 113.494 244.895 112.681C245.612 111.868 246.497 111.223 247.549 110.744C248.601 110.218 250.179 109.573 252.283 108.808L259.957 105.939L260.173 107.015L254.937 109.238C253.646 109.764 252.617 110.338 251.852 110.96C251.087 111.581 250.705 112.514 250.705 113.757C250.705 114.905 251.063 115.813 251.781 116.483C252.546 117.152 253.43 117.487 254.435 117.487C255.343 117.487 256.275 117.2 257.232 116.626L261.105 114.044L261.177 115.12L256.084 118.706C254.937 119.519 253.885 120.093 252.928 120.428C252.02 120.762 250.992 120.93 249.844 120.93ZM284.343 121.36C282.286 121.36 280.398 120.81 278.676 119.71C276.955 118.563 275.592 116.937 274.588 114.833C273.584 112.729 273.082 110.266 273.082 107.445C273.082 103.906 273.919 100.966 275.592 98.6224C277.266 96.2793 279.37 94.5579 281.904 93.4581C284.438 92.3582 286.972 91.8083 289.507 91.8083C292.615 91.8083 295.556 92.6691 298.329 94.3905L296.966 99.8418C295.819 97.69 294.551 96.112 293.165 95.1078C291.826 94.0558 290.152 93.5298 288.144 93.5298C285.418 93.5298 283.291 94.4862 281.76 96.3989C280.278 98.3116 279.537 101.252 279.537 105.221C279.537 109.238 280.326 112.418 281.904 114.761C283.482 117.056 285.49 118.204 287.929 118.204C289.746 118.204 291.372 117.726 292.806 116.769C294.288 115.813 295.866 114.426 297.54 112.609L298.185 113.183C295.986 115.622 293.81 117.606 291.658 119.136C289.555 120.619 287.116 121.36 284.343 121.36ZM301.34 112.251C301.34 113.924 301.507 115.12 301.842 115.837C302.177 116.506 302.751 116.841 303.564 116.841C304.52 116.841 305.596 116.554 306.791 115.98H306.863C307.006 115.98 307.126 116.1 307.222 116.339C307.365 116.578 307.365 116.722 307.222 116.769L298.041 121.217L297.61 121.288C297.037 121.288 296.534 120.691 296.104 119.495C295.722 118.3 295.53 116.65 295.53 114.546V77.9649C295.53 76.2913 295.363 75.0958 295.028 74.3786C294.741 73.6135 294.191 73.2309 293.379 73.2309C292.853 73.2309 291.896 73.5178 290.51 74.0916H290.366C290.175 74.0916 290.031 73.9721 289.936 73.733C289.84 73.4939 289.864 73.3505 290.007 73.3026L300.049 68.4969L300.336 68.4252C300.527 68.4252 300.742 68.5208 300.981 68.7121C301.221 68.9034 301.34 69.0707 301.34 69.2142V112.251ZM323.86 121.288C320.944 121.288 318.409 120.643 316.258 119.352C314.154 118.061 312.528 116.363 311.38 114.259C310.28 112.155 309.731 109.884 309.731 107.445C309.731 104.624 310.424 102.041 311.811 99.6983C313.197 97.3552 315.086 95.5142 317.477 94.1753C319.916 92.7886 322.617 92.0952 325.582 92.0952C328.451 92.0952 330.65 92.7886 332.18 94.1753C333.758 95.5621 334.547 97.6183 334.547 100.344C334.547 101.061 334.476 101.587 334.332 101.922C334.237 102.257 334.045 102.424 333.758 102.424H327.877C328.116 96.4945 326.49 93.5298 323 93.5298C320.848 93.5298 319.15 94.5101 317.907 96.4706C316.712 98.4312 316.114 101.085 316.114 104.432C316.114 108.64 317.094 111.988 319.055 114.474C321.015 116.913 323.789 118.132 327.375 118.132C328.714 118.132 329.837 117.965 330.746 117.63C331.655 117.295 332.85 116.746 334.332 115.98L334.476 115.909C334.571 115.909 334.667 116.004 334.763 116.196C334.906 116.387 334.93 116.53 334.834 116.626C333.113 118.252 331.368 119.447 329.598 120.212C327.829 120.93 325.917 121.288 323.86 121.288ZM313.962 101.276L329.884 100.989V102.424L314.034 102.496L313.962 101.276ZM377.149 120.428C377.006 120.428 376.934 120.284 376.934 119.997C376.934 119.71 377.006 119.567 377.149 119.567C378.727 119.567 379.803 119.232 380.377 118.563C380.951 117.845 381.238 116.53 381.238 114.618V103.93C381.238 101.252 380.76 99.268 379.803 97.9769C378.895 96.6858 377.484 96.0402 375.571 96.0402C374.041 96.0402 372.511 96.4706 370.981 97.3313C369.499 98.1921 368.256 99.3636 367.251 100.846L366.893 99.9853C370.575 94.6296 374.639 91.9518 379.086 91.9518C381.62 91.9518 383.557 92.693 384.896 94.1753C386.282 95.6099 386.976 97.8095 386.976 100.774V114.618C386.976 116.578 387.239 117.893 387.765 118.563C388.339 119.232 389.438 119.567 391.064 119.567C391.255 119.567 391.351 119.71 391.351 119.997C391.351 120.284 391.255 120.428 391.064 120.428C389.869 120.428 388.912 120.404 388.195 120.356L384.107 120.284L380.018 120.356C379.301 120.404 378.345 120.428 377.149 120.428ZM358.431 120.428C358.287 120.428 358.215 120.284 358.215 119.997C358.215 119.71 358.287 119.567 358.431 119.567C360.056 119.567 361.132 119.232 361.658 118.563C362.232 117.893 362.519 116.578 362.519 114.618V103.93C362.519 101.252 362.041 99.268 361.084 97.9769C360.176 96.6858 358.765 96.0402 356.853 96.0402C355.322 96.0402 353.792 96.4706 352.262 97.3313C350.78 98.1921 349.537 99.3636 348.532 100.846L348.174 99.9853C351.856 94.6296 355.92 91.9518 360.367 91.9518C362.901 91.9518 364.838 92.6691 366.177 94.1036C367.564 95.4903 368.257 97.5226 368.257 100.2V114.618C368.257 116.578 368.544 117.893 369.118 118.563C369.691 119.232 370.791 119.567 372.417 119.567C372.56 119.567 372.632 119.71 372.632 119.997C372.632 120.284 372.56 120.428 372.417 120.428C371.174 120.428 370.193 120.404 369.476 120.356L365.388 120.284L361.3 120.356C360.582 120.404 359.626 120.428 358.431 120.428ZM339.999 120.428C339.855 120.428 339.783 120.284 339.783 119.997C339.783 119.71 339.855 119.567 339.999 119.567C341.624 119.567 342.7 119.232 343.226 118.563C343.752 117.893 344.015 116.578 344.015 114.618V100.918C344.015 99.3875 343.824 98.2638 343.441 97.5465C343.107 96.8293 342.533 96.4706 341.72 96.4706C341.003 96.4706 339.807 96.8293 338.134 97.5465H338.062C337.871 97.5465 337.727 97.427 337.632 97.1879C337.536 96.9488 337.56 96.8053 337.703 96.7575L347.099 92.167C347.386 92.0713 347.554 92.0235 347.601 92.0235C348.127 92.0235 348.629 92.6212 349.108 93.8167C349.586 95.0122 349.825 96.5663 349.825 98.479V114.618C349.825 116.578 350.088 117.893 350.614 118.563C351.188 119.232 352.287 119.567 353.913 119.567C354.057 119.567 354.128 119.71 354.128 119.997C354.128 120.284 354.057 120.428 353.913 120.428C352.718 120.428 351.761 120.404 351.044 120.356L346.956 120.284L342.796 120.356C342.126 120.404 341.194 120.428 339.999 120.428ZM423.841 92.7408C423.937 92.7408 423.985 92.8842 423.985 93.1712C423.985 93.4581 423.937 93.6015 423.841 93.6015C422.407 93.6015 421.163 94.1753 420.111 95.323C419.107 96.4706 418.175 98.216 417.314 100.559L409.066 122.436C407.344 127.027 405.695 130.637 404.117 133.267C402.539 135.897 400.937 137.762 399.311 138.862C397.685 140.009 395.892 140.583 393.932 140.583C392.593 140.583 391.565 140.296 390.848 139.722C390.083 139.196 389.7 138.383 389.7 137.284C389.7 136.375 390.011 135.658 390.632 135.132C391.206 134.606 391.923 134.343 392.784 134.343C393.358 134.343 393.812 134.414 394.147 134.558C394.53 134.701 394.984 134.94 395.51 135.275C396.323 135.897 397.159 136.208 398.02 136.208C399.216 136.208 400.291 135.682 401.248 134.63C402.252 133.625 403.304 131.952 404.404 129.609C405.551 127.266 406.938 123.894 408.564 119.495L408.348 122.795L396.514 98.6942C395.414 96.5902 394.577 95.2273 394.003 94.6057C393.43 93.9362 392.689 93.6015 391.78 93.6015C391.684 93.6015 391.637 93.4581 391.637 93.1712C391.637 92.8842 391.684 92.7408 391.78 92.7408C393.023 92.7408 393.98 92.7647 394.649 92.8125L397.446 92.8842L402.324 92.8125C403.041 92.7647 404.021 92.7408 405.264 92.7408C405.408 92.7408 405.48 92.8842 405.48 93.1712C405.48 93.4581 405.408 93.6015 405.264 93.6015C403.973 93.6015 403.017 93.7211 402.395 93.9602C401.774 94.1514 401.463 94.5101 401.463 95.0361C401.463 95.4186 401.606 95.8729 401.893 96.3989L411.218 115.55L408.994 119.352L415.521 100.559C415.904 99.3158 416.095 98.2877 416.095 97.4748C416.095 94.8926 414.493 93.6015 411.289 93.6015C411.194 93.6015 411.146 93.4581 411.146 93.1712C411.146 92.8842 411.194 92.7408 411.289 92.7408C412.58 92.7408 413.561 92.7647 414.23 92.8125L418.533 92.8842L421.331 92.8125C421.857 92.7647 422.693 92.7408 423.841 92.7408ZM427.284 121.217C426.088 121.217 425.132 120.858 424.415 120.141C423.698 119.423 423.339 118.467 423.339 117.272C423.339 116.124 423.698 115.215 424.415 114.546C425.132 113.876 426.088 113.542 427.284 113.542C428.527 113.542 429.483 113.876 430.153 114.546C430.822 115.215 431.157 116.124 431.157 117.272C431.157 118.515 430.822 119.495 430.153 120.212C429.483 120.882 428.527 121.217 427.284 121.217Z" fill="black"/>
<path d="M199.038 17.0097V51.4389H191.11V35.6328L191.371 25.0432H191.267L182.766 51.4389H175.516L167.015 25.0432H166.91L167.171 35.6328V51.4389H159.189V17.0097H171.968L177.393 34.5373L179.323 41.8404H179.427L181.409 34.5894L186.782 17.0097H199.038ZM215.625 17.0097V51.4389H206.654V17.0097H215.625ZM254.274 17.0097V51.4389H244.312L233.62 32.8158L231.012 27.7036H230.96L231.168 34.0678V51.4389H223.241V17.0097H233.203L243.895 35.6328L246.503 40.745H246.555L246.347 34.3808V17.0097H254.274ZM276.493 17.0097C281.883 17.0097 286.003 18.5051 288.855 21.4959C291.741 24.4867 293.184 28.7295 293.184 34.2243C293.184 39.719 291.741 43.9618 288.855 46.9527C286.003 49.9435 281.883 51.4389 276.493 51.4389H261.889V17.0097H276.493ZM275.606 44.6574C278.528 44.6574 280.649 43.7879 281.97 42.0491C283.327 40.2755 284.005 37.6672 284.005 34.2243C284.005 30.7814 283.327 28.1905 281.97 26.4516C280.649 24.678 278.528 23.7912 275.606 23.7912H270.86V44.6574H275.606ZM354.105 17.0097V51.4389H346.177V35.6328L346.438 25.0432H346.334L337.832 51.4389H330.583L322.082 25.0432H321.977L322.238 35.6328V51.4389H314.258V17.0097H327.037L332.462 34.5373L334.392 41.8404H334.497L336.479 34.5894L341.852 17.0097H354.105ZM391.815 17.0097V37.4064C391.815 42.2752 390.511 45.9267 387.903 48.3611C385.33 50.7607 381.505 51.9605 376.428 51.9605C371.387 51.9605 367.562 50.7607 364.954 48.3611C362.345 45.9267 361.041 42.2752 361.041 37.4064V17.0097H370.064V37.5629C370.064 40.032 370.586 41.8752 371.629 43.0924C372.707 44.3096 374.307 44.9182 376.428 44.9182C378.584 44.9182 380.184 44.3096 381.227 43.0924C382.305 41.8752 382.844 40.032 382.844 37.5629V17.0097H391.815ZM412.209 16.488C415.408 16.488 418.224 16.9923 420.658 18.0008C423.127 18.9746 425.266 20.4178 427.074 22.3306L422.744 28.1209C421.249 26.556 419.632 25.3909 417.893 24.6258C416.189 23.826 414.242 23.426 412.051 23.426C410.764 23.426 409.721 23.5651 408.921 23.8434C408.121 24.1216 407.547 24.5041 407.2 24.991C406.852 25.4779 406.678 26.0343 406.678 26.6603C406.678 27.3906 407.008 28.0166 407.669 28.5383C408.365 29.0251 409.477 29.4425 411.008 29.7902L416.798 31.0944C420.24 31.8942 422.761 33.0593 424.36 34.5894C425.96 36.1196 426.76 38.1541 426.76 40.6928C426.76 43.1272 426.134 45.1964 424.882 46.9005C423.63 48.5698 421.908 49.8391 419.718 50.7086C417.527 51.5432 415.023 51.9605 412.207 51.9605C409.912 51.9605 407.721 51.7171 405.635 51.2302C403.548 50.7086 401.67 49.9782 400.001 49.0393C398.332 48.1003 396.923 47.0222 395.776 45.805L400.105 39.806C400.975 40.8145 402.035 41.7187 403.287 42.5186C404.574 43.2837 405.965 43.8923 407.46 44.3444C408.991 44.7965 410.538 45.0225 412.103 45.0225C413.32 45.0225 414.329 44.9008 415.128 44.6574C415.963 44.4139 416.572 44.0488 416.954 43.5619C417.337 43.075 417.528 42.5012 417.528 41.8404C417.528 41.1101 417.267 40.5015 416.746 40.0147C416.224 39.493 415.233 39.0583 413.772 38.7105L407.408 37.302C405.461 36.8499 403.722 36.2587 402.192 35.5284C400.697 34.7633 399.514 33.7548 398.645 32.5028C397.775 31.2161 397.341 29.6163 397.341 27.7036C397.341 25.5474 397.932 23.6347 399.114 21.9654C400.297 20.2613 402.001 18.9224 404.226 17.9487C406.452 16.9749 409.112 16.488 412.206 16.488H412.209ZM462.906 41.5796C462.246 43.9792 461.185 45.9615 459.724 47.5265C458.264 49.0567 456.525 50.1869 454.508 50.9172C452.491 51.6128 450.265 51.9605 447.831 51.9605C444.354 51.9605 441.346 51.265 438.808 49.8739C436.269 48.4481 434.322 46.4136 432.966 43.7706C431.61 41.1275 430.931 37.9454 430.931 34.2243C430.931 30.5032 431.61 27.3211 432.966 24.678C434.322 22.035 436.269 20.0179 438.808 18.6268C441.347 17.201 444.337 16.488 447.779 16.488C450.178 16.488 452.387 16.8358 454.404 17.5313C456.421 18.1921 458.125 19.218 459.516 20.6091C460.907 22.0002 461.898 23.7912 462.489 25.9821L454.614 29.1642C454.127 27.0081 453.327 25.53 452.214 24.7302C451.136 23.9303 449.762 23.5304 448.093 23.5304C446.459 23.5304 445.033 23.9303 443.816 24.7302C442.633 25.53 441.712 26.7299 441.051 28.3296C440.425 29.8946 440.112 31.8595 440.112 34.2243C440.112 36.5543 440.408 38.5192 440.999 40.119C441.59 41.7187 442.477 42.9185 443.659 43.7184C444.876 44.5183 446.372 44.9182 448.145 44.9182C449.815 44.9182 451.223 44.4661 452.371 43.5619C453.553 42.6229 454.353 41.1971 454.77 39.2843L462.906 41.5796ZM476.885 44.5009H494.15V51.4389H467.914V17.0097H476.885V44.5009ZM499.313 51.4389V17.0097H526.122V23.9477H508.284V30.9379H522.471V37.4585H508.284V44.5009H526.8V51.4389H499.313ZM545.682 16.488C548.882 16.488 551.698 16.9923 554.131 18.0008C556.601 18.9746 558.739 20.4178 560.548 22.3306L556.218 28.1209C554.723 26.556 553.106 25.3909 551.367 24.6258C549.663 23.826 547.715 23.426 545.524 23.426C544.238 23.426 543.194 23.5651 542.395 23.8434C541.595 24.1216 541.021 24.5041 540.673 24.991C540.325 25.4779 540.152 26.0343 540.152 26.6603C540.152 27.3906 540.482 28.0166 541.143 28.5383C541.838 29.0251 542.951 29.4425 544.481 29.7902L550.271 31.0944C553.714 31.8942 556.235 33.0593 557.834 34.5894C559.433 36.1196 560.233 38.1541 560.233 40.6928C560.233 43.1272 559.607 45.1964 558.355 46.9005C557.103 48.5698 555.382 49.8391 553.191 50.7086C551 51.5432 548.497 51.9605 545.681 51.9605C543.386 51.9605 541.195 51.7171 539.108 51.2302C537.022 50.7086 535.144 49.9782 533.475 49.0393C531.805 48.1003 530.397 47.0222 529.249 45.805L533.579 39.806C534.448 40.8145 535.509 41.7187 536.761 42.5186C538.048 43.2837 539.439 43.8923 540.934 44.3444C542.464 44.7965 544.012 45.0225 545.577 45.0225C546.794 45.0225 547.802 44.9008 548.602 44.6574C549.437 44.4139 550.045 44.0488 550.428 43.5619C550.81 43.075 551.002 42.5012 551.002 41.8404C551.002 41.1101 550.741 40.5015 550.219 40.0147C549.698 39.493 548.706 39.0583 547.246 38.7105L540.882 37.302C538.934 36.8499 537.196 36.2587 535.666 35.5284C534.17 34.7633 532.988 33.7548 532.118 32.5028C531.249 31.2161 530.814 29.6163 530.814 27.7036C530.814 25.5474 531.405 23.6347 532.588 21.9654C533.77 20.2613 535.474 18.9224 537.7 17.9487C539.926 16.9749 542.585 16.488 545.68 16.488H545.682Z" fill="#19A28D"/>
<g clip-path="url(#clip0_26_26)">
<path d="M152.044 -13.74H-12.8359V151.14H152.044V-13.74Z" fill="white"/>
<path d="M152.044 -13.74H-12.8359V151.14H152.044V-13.74Z" fill="#19A28D"/>
<mask id="mask0_26_26" style="mask-type:luminance" maskUnits="userSpaceOnUse" x="19" y="31" width="101" height="70">
<path d="M19.8208 31.8768H119.298V100.394H19.8208V31.8768Z" fill="white"/>
</mask>
<g mask="url(#mask0_26_26)">
<path d="M69.6026 32.0099L19.8208 58.2089L69.6026 84.4094L98.4222 69.8364C98.4222 69.8364 98.4222 83.0454 98.4222 89.6492C98.4222 100.13 108.903 100.13 108.903 100.13V94.889C108.903 94.889 103.663 94.5899 103.663 89.6478C103.663 81.7873 103.663 66.8866 103.663 66.8866L119.384 58.2089L69.6026 32.0099Z" fill="white"/>
</g>
<mask id="mask1_26_26" style="mask-type:luminance" maskUnits="userSpaceOnUse" x="45" y="79" width="49" height="27">
<path d="M45.9712 79.1425H93.2368V105.506H45.9712V79.1425Z" fill="white"/>
</mask>
<g mask="url(#mask1_26_26)">
<path d="M46.0212 79.1697V89.6493C46.0212 92.2527 47.7244 95.7407 51.261 97.5097L69.6025 105.37L85.3219 97.5097C88.86 95.7407 93.43 92.2399 93.1824 89.6493V79.1697L69.6025 90.6311L46.0212 79.1697Z" fill="white"/>
</g>
</g>
<defs>
<clipPath id="clip0_26_26">
<rect x="0.904053" width="137.4" height="137.4" rx="68.7" fill="white"/>
</clipPath>
</defs>
</svg>
